{
	"patcher" : 	{
		"fileversion" : 1,
		"appversion" : 		{
			"major" : 7,
			"minor" : 3,
			"revision" : 5,
			"architecture" : "x64",
			"modernui" : 1
		}
,
		"rect" : [ 615.0, 238.0, 793.0, 539.0 ],
		"bglocked" : 0,
		"openinpresentation" : 0,
		"default_fontsize" : 12.0,
		"default_fontface" : 0,
		"default_fontname" : "Arial",
		"gridonopen" : 2,
		"gridsize" : [ 15.0, 15.0 ],
		"gridsnaponopen" : 2,
		"objectsnaponopen" : 0,
		"statusbarvisible" : 2,
		"toolbarvisible" : 1,
		"lefttoolbarpinned" : 0,
		"toptoolbarpinned" : 0,
		"righttoolbarpinned" : 0,
		"bottomtoolbarpinned" : 0,
		"toolbars_unpinned_last_save" : 0,
		"tallnewobj" : 0,
		"boxanimatetime" : 200,
		"enablehscroll" : 1,
		"enablevscroll" : 1,
		"devicewidth" : 0.0,
		"description" : "",
		"digest" : "",
		"tags" : "",
		"style" : "",
		"subpatcher_template" : "evan",
		"boxes" : [ 			{
				"box" : 				{
					"attr" : "fault_height",
					"id" : "obj-49",
					"maxclass" : "attrui",
					"numinlets" : 1,
					"numoutlets" : 1,
					"outlettype" : [ "" ],
					"patching_rect" : [ 210.0, 75.0, 150.0, 22.0 ],
					"style" : ""
				}

			}
, 			{
				"box" : 				{
					"attr" : "fault_amp",
					"id" : "obj-47",
					"maxclass" : "attrui",
					"numinlets" : 1,
					"numoutlets" : 1,
					"outlettype" : [ "" ],
					"patching_rect" : [ 210.0, 15.0, 150.0, 22.0 ],
					"style" : ""
				}

			}
, 			{
				"box" : 				{
					"attr" : "fault_speed",
					"id" : "obj-48",
					"maxclass" : "attrui",
					"numinlets" : 1,
					"numoutlets" : 1,
					"outlettype" : [ "" ],
					"patching_rect" : [ 210.0, 45.0, 150.0, 22.0 ],
					"style" : ""
				}

			}
, 			{
				"box" : 				{
					"attr" : "rnd_amp",
					"id" : "obj-45",
					"maxclass" : "attrui",
					"numinlets" : 1,
					"numoutlets" : 1,
					"outlettype" : [ "" ],
					"patching_rect" : [ 30.0, 45.0, 150.0, 22.0 ],
					"style" : ""
				}

			}
, 			{
				"box" : 				{
					"attr" : "rnd_speed",
					"id" : "obj-46",
					"maxclass" : "attrui",
					"numinlets" : 1,
					"numoutlets" : 1,
					"outlettype" : [ "" ],
					"patching_rect" : [ 30.0, 75.0, 150.0, 22.0 ],
					"style" : ""
				}

			}
, 			{
				"box" : 				{
					"id" : "obj-44",
					"linecount" : 5,
					"maxclass" : "comment",
					"numinlets" : 1,
					"numoutlets" : 0,
					"patching_rect" : [ 30.0, 450.0, 195.0, 74.0 ],
					"style" : "",
					"text" : "Should add an animated overlay with communications UI graphics (TKBK/mission control logo, addresses, meters... what colour scheme?)"
				}

			}
, 			{
				"box" : 				{
					"id" : "obj-43",
					"linecount" : 3,
					"maxclass" : "comment",
					"numinlets" : 1,
					"numoutlets" : 0,
					"patching_rect" : [ 690.0, 45.0, 150.0, 47.0 ],
					"style" : "",
					"text" : "this should be replaced with GPU noise or a static noise texture if it's used"
				}

			}
, 			{
				"box" : 				{
					"id" : "obj-41",
					"maxclass" : "live.text",
					"mode" : 0,
					"numinlets" : 1,
					"numoutlets" : 2,
					"outlettype" : [ "", "" ],
					"parameter_enable" : 1,
					"patching_rect" : [ 390.0, 240.0, 40.0, 20.0 ],
					"saved_attribute_attributes" : 					{
						"valueof" : 						{
							"parameter_longname" : "live.text[1]",
							"parameter_shortname" : "live.text",
							"parameter_type" : 2,
							"parameter_mmax" : 1.0,
							"parameter_enum" : [ "val1", "val2" ]
						}

					}
,
					"text" : "out",
					"varname" : "live.text[1]"
				}

			}
, 			{
				"box" : 				{
					"id" : "obj-40",
					"maxclass" : "live.text",
					"mode" : 0,
					"numinlets" : 1,
					"numoutlets" : 2,
					"outlettype" : [ "", "" ],
					"parameter_enable" : 1,
					"patching_rect" : [ 270.0, 240.0, 40.0, 20.0 ],
					"saved_attribute_attributes" : 					{
						"valueof" : 						{
							"parameter_longname" : "live.text",
							"parameter_shortname" : "live.text",
							"parameter_type" : 2,
							"parameter_mmax" : 1.0,
							"parameter_enum" : [ "val1", "val2" ]
						}

					}
,
					"text" : "in",
					"varname" : "live.text"
				}

			}
, 			{
				"box" : 				{
					"id" : "obj-39",
					"linecount" : 3,
					"maxclass" : "comment",
					"numinlets" : 1,
					"numoutlets" : 0,
					"patching_rect" : [ 480.0, 270.0, 150.0, 47.0 ],
					"style" : "",
					"text" : "animate window appearing and disappearing"
				}

			}
, 			{
				"box" : 				{
					"attr" : "interlace_amp",
					"id" : "obj-36",
					"maxclass" : "attrui",
					"numinlets" : 1,
					"numoutlets" : 1,
					"outlettype" : [ "" ],
					"patching_rect" : [ 30.0, 105.0, 150.0, 22.0 ],
					"style" : ""
				}

			}
, 			{
				"box" : 				{
					"attr" : "interlace_speed",
					"id" : "obj-35",
					"maxclass" : "attrui",
					"numinlets" : 1,
					"numoutlets" : 1,
					"outlettype" : [ "" ],
					"patching_rect" : [ 30.0, 135.0, 150.0, 22.0 ],
					"style" : ""
				}

			}
, 			{
				"box" : 				{
					"attr" : "rgbsplit_speed",
					"id" : "obj-34",
					"maxclass" : "attrui",
					"numinlets" : 1,
					"numoutlets" : 1,
					"outlettype" : [ "" ],
					"patching_rect" : [ 210.0, 105.0, 150.0, 22.0 ],
					"style" : ""
				}

			}
, 			{
				"box" : 				{
					"id" : "obj-32",
					"maxclass" : "message",
					"numinlets" : 2,
					"numoutlets" : 1,
					"outlettype" : [ "" ],
					"patching_rect" : [ 225.0, 330.0, 37.0, 22.0 ],
					"style" : "",
					"text" : "reset"
				}

			}
, 			{
				"box" : 				{
					"id" : "obj-30",
					"maxclass" : "toggle",
					"numinlets" : 1,
					"numoutlets" : 1,
					"outlettype" : [ "int" ],
					"parameter_enable" : 0,
					"patching_rect" : [ 375.0, 30.0, 24.0, 24.0 ],
					"style" : ""
				}

			}
, 			{
				"box" : 				{
					"id" : "obj-24",
					"maxclass" : "newobj",
					"numinlets" : 1,
					"numoutlets" : 1,
					"outlettype" : [ "" ],
					"patching_rect" : [ 390.0, 330.0, 111.0, 22.0 ],
					"style" : "",
					"text" : "ease @function 25"
				}

			}
, 			{
				"box" : 				{
					"id" : "obj-25",
					"maxclass" : "newobj",
					"numinlets" : 3,
					"numoutlets" : 2,
					"outlettype" : [ "", "" ],
					"patching_rect" : [ 390.0, 300.0, 43.0, 22.0 ],
					"style" : "",
					"text" : "line 1."
				}

			}
, 			{
				"box" : 				{
					"id" : "obj-22",
					"maxclass" : "message",
					"numinlets" : 2,
					"numoutlets" : 1,
					"outlettype" : [ "" ],
					"patching_rect" : [ 390.0, 270.0, 67.0, 22.0 ],
					"style" : "",
					"text" : "1., 0. 500"
				}

			}
, 			{
				"box" : 				{
					"id" : "obj-21",
					"maxclass" : "newobj",
					"numinlets" : 1,
					"numoutlets" : 1,
					"outlettype" : [ "" ],
					"patching_rect" : [ 270.0, 330.0, 112.0, 22.0 ],
					"style" : "",
					"text" : "ease @function 22"
				}

			}
, 			{
				"box" : 				{
					"id" : "obj-20",
					"maxclass" : "newobj",
					"numinlets" : 4,
					"numoutlets" : 1,
					"outlettype" : [ "" ],
					"patching_rect" : [ 270.0, 375.0, 95.0, 22.0 ],
					"style" : "",
					"text" : "pak scale 1. f 0."
				}

			}
, 			{
				"box" : 				{
					"id" : "obj-19",
					"maxclass" : "message",
					"numinlets" : 2,
					"numoutlets" : 1,
					"outlettype" : [ "" ],
					"patching_rect" : [ 270.0, 270.0, 67.0, 22.0 ],
					"style" : "",
					"text" : "0., 1. 500"
				}

			}
, 			{
				"box" : 				{
					"id" : "obj-17",
					"maxclass" : "newobj",
					"numinlets" : 3,
					"numoutlets" : 2,
					"outlettype" : [ "", "" ],
					"patching_rect" : [ 270.0, 300.0, 43.0, 22.0 ],
					"style" : "",
					"text" : "line 1."
				}

			}
, 			{
				"box" : 				{
					"id" : "obj-9",
					"maxclass" : "newobj",
					"numinlets" : 1,
					"numoutlets" : 2,
					"outlettype" : [ "", "" ],
					"patching_rect" : [ 60.0, 375.0, 94.0, 22.0 ],
					"style" : "",
					"text" : "jit.gl.handle test"
				}

			}
, 			{
				"box" : 				{
					"id" : "obj-3",
					"maxclass" : "newobj",
					"numinlets" : 1,
					"numoutlets" : 2,
					"outlettype" : [ "jit_matrix", "" ],
					"patching_rect" : [ 30.0, 420.0, 345.0, 22.0 ],
					"style" : "",
					"text" : "jit.gl.videoplane test @position -4 1.5 -6. @rotatexyz 25. 60. 15"
				}

			}
, 			{
				"box" : 				{
					"id" : "obj-6",
					"linecount" : 5,
					"maxclass" : "comment",
					"numinlets" : 1,
					"numoutlets" : 0,
					"patching_rect" : [ 390.0, 375.0, 225.0, 74.0 ],
					"style" : "",
					"text" : "see also:\nhttps://www.shadertoy.com/view/XtK3W3\nhttps://www.shadertoy.com/view/ldXGW4"
				}

			}
, 			{
				"box" : 				{
					"id" : "obj-15",
					"maxclass" : "button",
					"numinlets" : 1,
					"numoutlets" : 1,
					"outlettype" : [ "bang" ],
					"patching_rect" : [ 630.0, 105.0, 24.0, 24.0 ],
					"style" : ""
				}

			}
, 			{
				"box" : 				{
					"id" : "obj-13",
					"maxclass" : "newobj",
					"numinlets" : 1,
					"numoutlets" : 2,
					"outlettype" : [ "jit_matrix", "" ],
					"patching_rect" : [ 630.0, 135.0, 136.0, 22.0 ],
					"style" : "",
					"text" : "jit.noise 4 char 320 240"
				}

			}
, 			{
				"box" : 				{
					"id" : "obj-10",
					"maxclass" : "newobj",
					"numinlets" : 1,
					"numoutlets" : 2,
					"outlettype" : [ "", "" ],
					"patching_rect" : [ 375.0, 105.0, 65.0, 22.0 ],
					"style" : "",
					"text" : "jit.mo.time"
				}

			}
, 			{
				"box" : 				{
					"id" : "obj-8",
					"maxclass" : "newobj",
					"numinlets" : 1,
					"numoutlets" : 1,
					"outlettype" : [ "" ],
					"patching_rect" : [ 375.0, 135.0, 81.0, 22.0 ],
					"style" : "",
					"text" : "prepend time"
				}

			}
, 			{
				"box" : 				{
					"id" : "obj-7",
					"maxclass" : "message",
					"numinlets" : 2,
					"numoutlets" : 1,
					"outlettype" : [ "" ],
					"patching_rect" : [ 465.0, 105.0, 37.0, 22.0 ],
					"style" : "",
					"text" : "open"
				}

			}
, 			{
				"box" : 				{
					"id" : "obj-5",
					"maxclass" : "newobj",
					"numinlets" : 1,
					"numoutlets" : 2,
					"outlettype" : [ "jit_matrix", "" ],
					"patching_rect" : [ 465.0, 135.0, 149.0, 22.0 ],
					"style" : "",
					"text" : "jit.grab @output_texture 1"
				}

			}
, 			{
				"box" : 				{
					"id" : "obj-2",
					"maxclass" : "newobj",
					"numinlets" : 1,
					"numoutlets" : 3,
					"outlettype" : [ "", "bang", "" ],
					"patching_rect" : [ 375.0, 60.0, 274.0, 22.0 ],
					"style" : "",
					"text" : "jit.world test @fsmenubar 0 @erase_color 0 0 0 1"
				}

			}
, 			{
				"box" : 				{
					"id" : "obj-1",
					"maxclass" : "newobj",
					"numinlets" : 3,
					"numoutlets" : 2,
					"outlettype" : [ "jit_gl_texture", "" ],
					"patcher" : 					{
						"fileversion" : 1,
						"appversion" : 						{
							"major" : 7,
							"minor" : 3,
							"revision" : 5,
							"architecture" : "x64",
							"modernui" : 1
						}
,
						"rect" : [ 34.0, 118.0, 1383.0, 783.0 ],
						"editing_bgcolor" : [ 0.9, 0.9, 0.9, 1.0 ],
						"bglocked" : 0,
						"openinpresentation" : 0,
						"default_fontsize" : 12.0,
						"default_fontface" : 0,
						"default_fontname" : "Arial",
						"gridonopen" : 2,
						"gridsize" : [ 15.0, 15.0 ],
						"gridsnaponopen" : 2,
						"objectsnaponopen" : 0,
						"statusbarvisible" : 2,
						"toolbarvisible" : 1,
						"lefttoolbarpinned" : 0,
						"toptoolbarpinned" : 0,
						"righttoolbarpinned" : 0,
						"bottomtoolbarpinned" : 0,
						"toolbars_unpinned_last_save" : 0,
						"tallnewobj" : 0,
						"boxanimatetime" : 200,
						"enablehscroll" : 1,
						"enablevscroll" : 1,
						"devicewidth" : 0.0,
						"description" : "",
						"digest" : "",
						"tags" : "",
						"style" : "",
						"subpatcher_template" : "",
						"boxes" : [ 							{
								"box" : 								{
									"id" : "obj-11",
									"linecount" : 3,
									"maxclass" : "comment",
									"numinlets" : 1,
									"numoutlets" : 0,
									"patching_rect" : [ 795.0, 15.0, 225.0, 47.0 ],
									"style" : "",
									"text" : "Monitor Glitch\nby jt\nhttps://www.shadertoy.com/view/ltSSWV"
								}

							}
, 							{
								"box" : 								{
									"id" : "obj-7",
									"linecount" : 70,
									"maxclass" : "comment",
									"numinlets" : 1,
									"numoutlets" : 0,
									"patching_rect" : [ 780.0, 90.0, 555.0, 945.0 ],
									"style" : "",
									"text" : "// Monitor Glitch - Shader-Effect simulating bad TV reception\n//\n// Written in 2015 by JT (shaderview@protonmail.com)\n//\n// CC0 License\n//\n// To the extent possible under law, the author has dedicated\n// all copyright and related and neighboring rights to this software\n// to the public domain worldwide.\n// This software is distributed without any warranty.\n//\n// For a copy of the CC0 Public Domain Dedication see <http://creativecommons.org/publicdomain/zero/1.0/>.\n\n#define pi 3.1415926\n\nfloat t;\n\nvec3 colorSplit(vec2 uv, vec2 s)\n{\n    vec3 color;\n    color.r = texture(iChannel0, uv - s).r;\n    color.g = texture(iChannel0, uv    ).g;\n    color.b = texture(iChannel0, uv + s).b;\n    return color;\n}\n\nvec2 interlace(vec2 uv, float s)\n{\n    uv.x += s * (4.0 * fract((uv.y * iResolution.y) / 2.0) - 1.0);\n    return uv;\n}\n\nvec2 fault(vec2 uv, float s)\n{\n    //float v = (0.5 + 0.5 * cos(2.0 * pi * uv.y)) * (2.0 * uv.y - 1.0);\n    float v = pow(0.5 - 0.5 * cos(2.0 * pi * uv.y), 100.0) * sin(2.0 * pi * uv.y);\n    uv.x += v * s;\n    return uv;\n}\n\nvec2 rnd(vec2 uv, float s)\n{\n    uv.x += s * (2.0 * texture(iChannel1, uv * 0.05).x - 1.0);\n    return uv;\n}\n\nvoid mainImage( out vec4 fragColor, in vec2 fragCoord )\n{\n    // t = fract(iTime / 10.0) * 10.0\n    float t = iTime / 10.0;\n\n\tvec2 uv = -fragCoord.xy / iResolution.xy;\n    \n    //float s = pow(0.5 + 0.5 * cos(2.0 * pi * t), 1000.0);\n    float s = texture(iChannel1, vec2(t * 0.2, 0.5)).r;\n    \n    uv = interlace(uv, s * 0.005);\n    //uv = fault(uv, s);\n    float r = texture(iChannel2, vec2(t, 0.0)).x;\n    //uv = fault(uv + vec2(0.0, fract(t * 20.0)), r) - vec2(0.0, fract(t * 20.0));\n    uv = fault(uv + vec2(0.0, fract(t * 2.0)), 5.0 * sign(r) * pow(abs(r), 5.0)) - vec2(0.0, fract(t * 2.0));\n    uv = rnd(uv, s * 0.02);\n    \n    vec3 color = colorSplit(uv, vec2(s * 0.02, 0.0));\n    //vec2 m = texture(iChannel2, uv).xy;\n    color = mix(color, texture(iChannel1, 0.5 * uv + t * 100.0).rgb, 0.25);\n    \n\tfragColor = vec4(color, 1.0);\n}\n"
								}

							}
, 							{
								"box" : 								{
									"id" : "obj-5",
									"maxclass" : "newobj",
									"numinlets" : 0,
									"numoutlets" : 1,
									"outlettype" : [ "" ],
									"patching_rect" : [ 705.0, 15.0, 30.0, 22.0 ],
									"style" : "",
									"text" : "in 3"
								}

							}
, 							{
								"box" : 								{
									"id" : "obj-1",
									"maxclass" : "newobj",
									"numinlets" : 0,
									"numoutlets" : 1,
									"outlettype" : [ "" ],
									"patching_rect" : [ 15.0, 15.0, 30.0, 22.0 ],
									"style" : "",
									"text" : "in 1"
								}

							}
, 							{
								"box" : 								{
									"id" : "obj-2",
									"maxclass" : "newobj",
									"numinlets" : 0,
									"numoutlets" : 1,
									"outlettype" : [ "" ],
									"patching_rect" : [ 360.0, 15.0, 30.0, 22.0 ],
									"style" : "",
									"text" : "in 2"
								}

							}
, 							{
								"box" : 								{
									"code" : "colorSplit(uv, s)\n{\n    color = vec(sample(in1, uv - s).r, sample(in1, uv).g, sample(in1, uv + s).b);\n    return color;\n}\n\ninterlace(uv, s)\n{\n\tuvx = uv.x;\r\n    uvx += s * (4.0 * fract((uv.y * dim.y) / 2.0) - 2.);\n\tuvout = vec(uvx, uv.y);\r\n    return uvout;\n}\n\nfault(uv, s, height)\n{\n    // v = (0.5 + 0.5 * cos(2.0 * pi * uv.y)) * (2.0 * uv.y - 1.0);\n    v = pow(height - (1.- height) * cos(2.0 * pi * uv.y), 100.0) * sin(2.0 * pi * uv.y);\n\tuvx = uv.x;\r\n    uvx += v * s;\r\n\tuvout = vec(uvx, uv.y);\n    return uvout;\n}\r\n\nrnd(uv, s)\n{\n\tuvx = uv.x;\r\n    uvx += s * (2.0 * sample(in2, uv * 0.05).x - 1.0);\n\tuvout = vec(uvx, uv.y);\r\n    return uvout;\n}\n\r\nParam time(0.);\nParam rgbsplit_amp(0.02);\r\nParam rgbsplit_speed(0.2);\r\nParam fault_speed(2.0);\r\nParam fault_amp(2.0);\r\nParam fault_height(0.5);\r\nParam interlace_speed(0.2);\r\nParam interlace_amp(0.02);\r\nParam rnd_speed(0.2);\r\nParam rnd_amp(0.02);\r\n// t = fract(iTime / 10.0) * 10.0\nt = time / 10.0;\n\nuv = norm;\n//float s = pow(0.5 + 0.5 * cos(2.0 * pi * t), 1000.0);\ns = sample(in2, vec(t * 0.2, 0.5)).r;\r\ns_rgb = sample(in2, vec(t * rgbsplit_speed, 0.5)).r;\ns_interlace = sample(in2, vec(t * interlace_speed, 0.5)).r;\r\ns_rnd = sample(in2, vec(t * rnd_speed, 0.5)).r;\r\nuv = interlace(uv, s_interlace * interlace_amp);\n//uv = fault(uv, s);\nr = sample(in3, vec(t, 0.0)).x;\n//uv = fault(uv + vec(0.0, fract(t * 20.0)), r) - vec(0.0, fract(t * 20.0));\nuv = fault\t(uv + vec(0.0, fract(t * fault_speed)),\r\n\t\t\tfault_amp * sign(r) * pow(abs(r), 5.0),\r\n\t\t\tfault_height)\r\n\t\t\t- vec(0.0, fract(t * fault_speed));\nuv = rnd(uv, s_rnd * rnd_amp);\n\ncolor = colorSplit(uv, vec(s_rgb * rgbsplit_amp, 0.0));\n//m = sample(in2, uv).xy;\n// color = mix(color, sample(in2, 0.5 * uv + t * 100.0).rgb, 0.25);\n\nout1 = vec(color.r, color.g, color.b, 1.0);",
									"fontface" : 0,
									"fontname" : "Arial",
									"fontsize" : 12.0,
									"id" : "obj-3",
									"maxclass" : "codebox",
									"numinlets" : 3,
									"numoutlets" : 1,
									"outlettype" : [ "" ],
									"patching_rect" : [ 15.0, 45.0, 720.0, 675.0 ],
									"style" : ""
								}

							}
, 							{
								"box" : 								{
									"id" : "obj-4",
									"maxclass" : "newobj",
									"numinlets" : 1,
									"numoutlets" : 0,
									"patching_rect" : [ 15.0, 735.0, 37.0, 22.0 ],
									"style" : "",
									"text" : "out 1"
								}

							}
 ],
						"lines" : [ 							{
								"patchline" : 								{
									"destination" : [ "obj-3", 0 ],
									"source" : [ "obj-1", 0 ]
								}

							}
, 							{
								"patchline" : 								{
									"destination" : [ "obj-3", 1 ],
									"source" : [ "obj-2", 0 ]
								}

							}
, 							{
								"patchline" : 								{
									"destination" : [ "obj-4", 0 ],
									"source" : [ "obj-3", 0 ]
								}

							}
, 							{
								"patchline" : 								{
									"destination" : [ "obj-3", 2 ],
									"source" : [ "obj-5", 0 ]
								}

							}
 ]
					}
,
					"patching_rect" : [ 30.0, 195.0, 51.0, 22.0 ],
					"style" : "",
					"text" : "jit.gl.pix"
				}

			}
, 			{
				"box" : 				{
					"attr" : "auto_rotate",
					"id" : "obj-11",
					"maxclass" : "attrui",
					"numinlets" : 1,
					"numoutlets" : 1,
					"outlettype" : [ "" ],
					"patching_rect" : [ 60.0, 330.0, 150.0, 22.0 ],
					"style" : ""
				}

			}
, 			{
				"box" : 				{
					"attr" : "rgbsplit_amp",
					"id" : "obj-33",
					"maxclass" : "attrui",
					"numinlets" : 1,
					"numoutlets" : 1,
					"outlettype" : [ "" ],
					"patching_rect" : [ 210.0, 135.0, 150.0, 22.0 ],
					"style" : ""
				}

			}
 ],
		"lines" : [ 			{
				"patchline" : 				{
					"destination" : [ "obj-3", 0 ],
					"midpoints" : [ 39.5, 303.0, 39.5, 303.0 ],
					"source" : [ "obj-1", 0 ]
				}

			}
, 			{
				"patchline" : 				{
					"destination" : [ "obj-8", 0 ],
					"source" : [ "obj-10", 0 ]
				}

			}
, 			{
				"patchline" : 				{
					"destination" : [ "obj-9", 0 ],
					"source" : [ "obj-11", 0 ]
				}

			}
, 			{
				"patchline" : 				{
					"destination" : [ "obj-1", 2 ],
					"midpoints" : [ 639.5, 183.0, 71.5, 183.0 ],
					"order" : 0,
					"source" : [ "obj-13", 0 ]
				}

			}
, 			{
				"patchline" : 				{
					"destination" : [ "obj-1", 1 ],
					"midpoints" : [ 639.5, 183.0, 55.5, 183.0 ],
					"order" : 1,
					"source" : [ "obj-13", 0 ]
				}

			}
, 			{
				"patchline" : 				{
					"destination" : [ "obj-13", 0 ],
					"source" : [ "obj-15", 0 ]
				}

			}
, 			{
				"patchline" : 				{
					"destination" : [ "obj-21", 0 ],
					"source" : [ "obj-17", 0 ]
				}

			}
, 			{
				"patchline" : 				{
					"destination" : [ "obj-17", 0 ],
					"source" : [ "obj-19", 0 ]
				}

			}
, 			{
				"patchline" : 				{
					"destination" : [ "obj-10", 0 ],
					"source" : [ "obj-2", 1 ]
				}

			}
, 			{
				"patchline" : 				{
					"destination" : [ "obj-3", 0 ],
					"midpoints" : [ 279.5, 408.0, 39.5, 408.0 ],
					"source" : [ "obj-20", 0 ]
				}

			}
, 			{
				"patchline" : 				{
					"destination" : [ "obj-20", 2 ],
					"midpoints" : [ 279.5, 363.0, 330.166667, 363.0 ],
					"source" : [ "obj-21", 0 ]
				}

			}
, 			{
				"patchline" : 				{
					"destination" : [ "obj-25", 0 ],
					"source" : [ "obj-22", 0 ]
				}

			}
, 			{
				"patchline" : 				{
					"destination" : [ "obj-20", 2 ],
					"midpoints" : [ 399.5, 363.0, 330.166667, 363.0 ],
					"source" : [ "obj-24", 0 ]
				}

			}
, 			{
				"patchline" : 				{
					"destination" : [ "obj-24", 0 ],
					"source" : [ "obj-25", 0 ]
				}

			}
, 			{
				"patchline" : 				{
					"destination" : [ "obj-2", 0 ],
					"source" : [ "obj-30", 0 ]
				}

			}
, 			{
				"patchline" : 				{
					"destination" : [ "obj-9", 0 ],
					"midpoints" : [ 234.5, 363.0, 69.5, 363.0 ],
					"source" : [ "obj-32", 0 ]
				}

			}
, 			{
				"patchline" : 				{
					"destination" : [ "obj-1", 0 ],
					"midpoints" : [ 219.5, 168.0, 39.5, 168.0 ],
					"source" : [ "obj-33", 0 ]
				}

			}
, 			{
				"patchline" : 				{
					"destination" : [ "obj-1", 0 ],
					"midpoints" : [ 219.5, 129.0, 192.0, 129.0, 192.0, 168.0, 39.5, 168.0 ],
					"source" : [ "obj-34", 0 ]
				}

			}
, 			{
				"patchline" : 				{
					"destination" : [ "obj-1", 0 ],
					"midpoints" : [ 39.5, 159.0, 39.5, 159.0 ],
					"source" : [ "obj-35", 0 ]
				}

			}
, 			{
				"patchline" : 				{
					"destination" : [ "obj-1", 0 ],
					"midpoints" : [ 39.5, 129.0, 15.0, 129.0, 15.0, 180.0, 39.5, 180.0 ],
					"source" : [ "obj-36", 0 ]
				}

			}
, 			{
				"patchline" : 				{
					"destination" : [ "obj-19", 0 ],
					"source" : [ "obj-40", 0 ]
				}

			}
, 			{
				"patchline" : 				{
					"destination" : [ "obj-22", 0 ],
					"source" : [ "obj-41", 0 ]
				}

			}
, 			{
				"patchline" : 				{
					"destination" : [ "obj-1", 0 ],
					"midpoints" : [ 39.5, 69.0, 15.0, 69.0, 15.0, 180.0, 39.5, 180.0 ],
					"source" : [ "obj-45", 0 ]
				}

			}
, 			{
				"patchline" : 				{
					"destination" : [ "obj-1", 0 ],
					"midpoints" : [ 39.5, 99.0, 15.0, 99.0, 15.0, 180.0, 39.5, 180.0 ],
					"source" : [ "obj-46", 0 ]
				}

			}
, 			{
				"patchline" : 				{
					"destination" : [ "obj-1", 0 ],
					"midpoints" : [ 219.5, 39.0, 192.0, 39.0, 192.0, 170.0, 39.5, 170.0 ],
					"source" : [ "obj-47", 0 ]
				}

			}
, 			{
				"patchline" : 				{
					"destination" : [ "obj-1", 0 ],
					"midpoints" : [ 219.5, 69.0, 192.0, 69.0, 192.0, 169.0, 39.5, 169.0 ],
					"source" : [ "obj-48", 0 ]
				}

			}
, 			{
				"patchline" : 				{
					"destination" : [ "obj-1", 0 ],
					"midpoints" : [ 219.5, 99.0, 192.0, 99.0, 192.0, 169.0, 39.5, 169.0 ],
					"source" : [ "obj-49", 0 ]
				}

			}
, 			{
				"patchline" : 				{
					"destination" : [ "obj-1", 0 ],
					"midpoints" : [ 474.5, 168.0, 39.5, 168.0 ],
					"source" : [ "obj-5", 0 ]
				}

			}
, 			{
				"patchline" : 				{
					"destination" : [ "obj-5", 0 ],
					"source" : [ "obj-7", 0 ]
				}

			}
, 			{
				"patchline" : 				{
					"destination" : [ "obj-1", 0 ],
					"midpoints" : [ 384.5, 168.0, 39.5, 168.0 ],
					"source" : [ "obj-8", 0 ]
				}

			}
, 			{
				"patchline" : 				{
					"destination" : [ "obj-3", 0 ],
					"midpoints" : [ 69.5, 408.0, 39.5, 408.0 ],
					"source" : [ "obj-9", 0 ]
				}

			}
 ],
		"parameters" : 		{
			"obj-40" : [ "live.text", "live.text", 0 ],
			"obj-41" : [ "live.text[1]", "live.text", 0 ]
		}
,
		"dependency_cache" : [ 			{
				"name" : "jit.mo.time.mxo",
				"type" : "iLaX"
			}
, 			{
				"name" : "ease.mxo",
				"type" : "iLaX"
			}
 ],
		"autosave" : 0,
		"bgfillcolor_type" : "gradient",
		"bgfillcolor_color1" : [ 0.376471, 0.384314, 0.4, 1.0 ],
		"bgfillcolor_color2" : [ 0.290196, 0.309804, 0.301961, 1.0 ],
		"bgfillcolor_color" : [ 0.290196, 0.309804, 0.301961, 1.0 ],
		"bgfillcolor_angle" : 270.0,
		"bgfillcolor_proportion" : 0.39
	}

}
