{
	"patcher" : 	{
		"fileversion" : 1,
		"appversion" : 		{
			"major" : 7,
			"minor" : 3,
			"revision" : 5,
			"architecture" : "x64",
			"modernui" : 1
		}
,
		"rect" : [ 198.0, 253.0, 966.0, 424.0 ],
		"bglocked" : 0,
		"openinpresentation" : 0,
		"default_fontsize" : 12.0,
		"default_fontface" : 0,
		"default_fontname" : "Arial",
		"gridonopen" : 2,
		"gridsize" : [ 15.0, 15.0 ],
		"gridsnaponopen" : 2,
		"objectsnaponopen" : 0,
		"statusbarvisible" : 2,
		"toolbarvisible" : 1,
		"lefttoolbarpinned" : 0,
		"toptoolbarpinned" : 0,
		"righttoolbarpinned" : 0,
		"bottomtoolbarpinned" : 0,
		"toolbars_unpinned_last_save" : 0,
		"tallnewobj" : 0,
		"boxanimatetime" : 200,
		"enablehscroll" : 1,
		"enablevscroll" : 1,
		"devicewidth" : 0.0,
		"description" : "",
		"digest" : "",
		"tags" : "",
		"style" : "",
		"subpatcher_template" : "evan",
		"boxes" : [ 			{
				"box" : 				{
					"attr" : "skylowamp",
					"id" : "obj-5",
					"maxclass" : "attrui",
					"numinlets" : 1,
					"numoutlets" : 1,
					"outlettype" : [ "" ],
					"patching_rect" : [ 630.0, 195.0, 240.0, 22.0 ],
					"style" : ""
				}

			}
, 			{
				"box" : 				{
					"attr" : "skyhiamp",
					"id" : "obj-7",
					"maxclass" : "attrui",
					"numinlets" : 1,
					"numoutlets" : 1,
					"outlettype" : [ "" ],
					"patching_rect" : [ 630.0, 225.0, 240.0, 22.0 ],
					"style" : ""
				}

			}
, 			{
				"box" : 				{
					"attr" : "btm2",
					"id" : "obj-26",
					"maxclass" : "attrui",
					"numinlets" : 1,
					"numoutlets" : 1,
					"outlettype" : [ "" ],
					"patching_rect" : [ 630.0, 375.0, 240.0, 22.0 ],
					"style" : ""
				}

			}
, 			{
				"box" : 				{
					"attr" : "btm3",
					"id" : "obj-27",
					"maxclass" : "attrui",
					"numinlets" : 1,
					"numoutlets" : 1,
					"outlettype" : [ "" ],
					"patching_rect" : [ 630.0, 405.0, 240.0, 22.0 ],
					"style" : ""
				}

			}
, 			{
				"box" : 				{
					"attr" : "btm1",
					"id" : "obj-29",
					"maxclass" : "attrui",
					"numinlets" : 1,
					"numoutlets" : 1,
					"outlettype" : [ "" ],
					"patching_rect" : [ 630.0, 345.0, 240.0, 22.0 ],
					"style" : ""
				}

			}
, 			{
				"box" : 				{
					"attr" : "top2",
					"id" : "obj-18",
					"maxclass" : "attrui",
					"numinlets" : 1,
					"numoutlets" : 1,
					"outlettype" : [ "" ],
					"patching_rect" : [ 630.0, 285.0, 240.0, 22.0 ],
					"style" : ""
				}

			}
, 			{
				"box" : 				{
					"attr" : "top3",
					"id" : "obj-19",
					"maxclass" : "attrui",
					"numinlets" : 1,
					"numoutlets" : 1,
					"outlettype" : [ "" ],
					"patching_rect" : [ 630.0, 315.0, 240.0, 22.0 ],
					"style" : ""
				}

			}
, 			{
				"box" : 				{
					"attr" : "top1",
					"id" : "obj-21",
					"maxclass" : "attrui",
					"numinlets" : 1,
					"numoutlets" : 1,
					"outlettype" : [ "" ],
					"patching_rect" : [ 630.0, 255.0, 240.0, 22.0 ],
					"style" : ""
				}

			}
, 			{
				"box" : 				{
					"attr" : "mtnspd",
					"id" : "obj-17",
					"maxclass" : "attrui",
					"numinlets" : 1,
					"numoutlets" : 1,
					"outlettype" : [ "" ],
					"patching_rect" : [ 375.0, 105.0, 240.0, 22.0 ],
					"style" : ""
				}

			}
, 			{
				"box" : 				{
					"attr" : "mtnamp",
					"id" : "obj-16",
					"maxclass" : "attrui",
					"numinlets" : 1,
					"numoutlets" : 1,
					"outlettype" : [ "" ],
					"patching_rect" : [ 375.0, 75.0, 240.0, 22.0 ],
					"style" : ""
				}

			}
, 			{
				"box" : 				{
					"attr" : "mtnheight",
					"id" : "obj-15",
					"maxclass" : "attrui",
					"numinlets" : 1,
					"numoutlets" : 1,
					"outlettype" : [ "" ],
					"patching_rect" : [ 375.0, 45.0, 240.0, 22.0 ],
					"style" : ""
				}

			}
, 			{
				"box" : 				{
					"attr" : "skylow",
					"id" : "obj-9",
					"maxclass" : "attrui",
					"numinlets" : 1,
					"numoutlets" : 1,
					"outlettype" : [ "" ],
					"patching_rect" : [ 630.0, 165.0, 240.0, 22.0 ],
					"style" : ""
				}

			}
, 			{
				"box" : 				{
					"attr" : "skyhi",
					"id" : "obj-11",
					"maxclass" : "attrui",
					"numinlets" : 1,
					"numoutlets" : 1,
					"outlettype" : [ "" ],
					"patching_rect" : [ 630.0, 135.0, 240.0, 22.0 ],
					"style" : ""
				}

			}
, 			{
				"box" : 				{
					"id" : "obj-3",
					"maxclass" : "newobj",
					"numinlets" : 1,
					"numoutlets" : 2,
					"outlettype" : [ "", "" ],
					"patching_rect" : [ 15.0, 120.0, 65.0, 22.0 ],
					"style" : "",
					"text" : "jit.mo.time"
				}

			}
, 			{
				"box" : 				{
					"attr" : "col2",
					"id" : "obj-31",
					"maxclass" : "attrui",
					"numinlets" : 1,
					"numoutlets" : 1,
					"outlettype" : [ "" ],
					"patching_rect" : [ 630.0, 45.0, 240.0, 22.0 ],
					"style" : ""
				}

			}
, 			{
				"box" : 				{
					"attr" : "col3",
					"id" : "obj-28",
					"maxclass" : "attrui",
					"numinlets" : 1,
					"numoutlets" : 1,
					"outlettype" : [ "" ],
					"patching_rect" : [ 630.0, 75.0, 240.0, 22.0 ],
					"style" : ""
				}

			}
, 			{
				"box" : 				{
					"id" : "obj-25",
					"maxclass" : "newobj",
					"numinlets" : 1,
					"numoutlets" : 2,
					"outlettype" : [ "jit_gl_texture", "" ],
					"patching_rect" : [ 105.0, 150.0, 222.0, 22.0 ],
					"style" : "",
					"text" : "jit.gl.texture @adapt 0 @dim 1920 1080"
				}

			}
, 			{
				"box" : 				{
					"fontface" : 0,
					"fontname" : "Arial",
					"fontsize" : 12.0,
					"id" : "obj-20",
					"maxclass" : "jit.fpsgui",
					"numinlets" : 1,
					"numoutlets" : 2,
					"outlettype" : [ "", "" ],
					"patching_rect" : [ 15.0, 315.0, 80.0, 35.0 ],
					"style" : ""
				}

			}
, 			{
				"box" : 				{
					"id" : "obj-6",
					"maxclass" : "comment",
					"numinlets" : 1,
					"numoutlets" : 0,
					"patching_rect" : [ 120.0, 315.0, 255.0, 20.0 ],
					"style" : "",
					"text" : "https://www.shadertoy.com/view/MsjfRG"
				}

			}
, 			{
				"box" : 				{
					"id" : "obj-8",
					"maxclass" : "newobj",
					"numinlets" : 1,
					"numoutlets" : 1,
					"outlettype" : [ "" ],
					"patching_rect" : [ 15.0, 150.0, 81.0, 22.0 ],
					"style" : "",
					"text" : "prepend time"
				}

			}
, 			{
				"box" : 				{
					"id" : "obj-4",
					"maxclass" : "toggle",
					"numinlets" : 1,
					"numoutlets" : 1,
					"outlettype" : [ "int" ],
					"parameter_enable" : 0,
					"patching_rect" : [ 105.0, 225.0, 24.0, 24.0 ],
					"style" : ""
				}

			}
, 			{
				"box" : 				{
					"id" : "obj-2",
					"maxclass" : "newobj",
					"numinlets" : 1,
					"numoutlets" : 3,
					"outlettype" : [ "", "bang", "" ],
					"patching_rect" : [ 15.0, 270.0, 194.0, 22.0 ],
					"style" : "",
					"text" : "jit.world test @high_res 1 @fsaa 1"
				}

			}
, 			{
				"box" : 				{
					"id" : "obj-1",
					"maxclass" : "newobj",
					"numinlets" : 1,
					"numoutlets" : 2,
					"outlettype" : [ "jit_gl_texture", "" ],
					"patcher" : 					{
						"fileversion" : 1,
						"appversion" : 						{
							"major" : 7,
							"minor" : 3,
							"revision" : 5,
							"architecture" : "x64",
							"modernui" : 1
						}
,
						"rect" : [ 360.0, -1024.0, 1313.0, 878.0 ],
						"editing_bgcolor" : [ 0.9, 0.9, 0.9, 1.0 ],
						"bglocked" : 0,
						"openinpresentation" : 0,
						"default_fontsize" : 12.0,
						"default_fontface" : 0,
						"default_fontname" : "Arial",
						"gridonopen" : 2,
						"gridsize" : [ 15.0, 15.0 ],
						"gridsnaponopen" : 2,
						"objectsnaponopen" : 0,
						"statusbarvisible" : 2,
						"toolbarvisible" : 1,
						"lefttoolbarpinned" : 0,
						"toptoolbarpinned" : 0,
						"righttoolbarpinned" : 0,
						"bottomtoolbarpinned" : 0,
						"toolbars_unpinned_last_save" : 0,
						"tallnewobj" : 0,
						"boxanimatetime" : 200,
						"enablehscroll" : 1,
						"enablevscroll" : 1,
						"devicewidth" : 0.0,
						"description" : "",
						"digest" : "",
						"tags" : "",
						"style" : "",
						"subpatcher_template" : "",
						"boxes" : [ 							{
								"box" : 								{
									"id" : "obj-11",
									"linecount" : 3,
									"maxclass" : "comment",
									"numinlets" : 1,
									"numoutlets" : 0,
									"patching_rect" : [ 675.0, 15.0, 240.0, 47.0 ],
									"style" : "",
									"text" : "Aurora Lights\nby Mattenii\nhttps://www.shadertoy.com/view/MsjfRG"
								}

							}
, 							{
								"box" : 								{
									"id" : "obj-7",
									"linecount" : 150,
									"maxclass" : "comment",
									"numinlets" : 1,
									"numoutlets" : 0,
									"patching_rect" : [ 675.0, 75.0, 505.0, 2017.0 ],
									"style" : "",
									"text" : "// Noise functions\nfloat hash(vec2 co) { return fract(sin(dot(co, vec2(12.9898, 78.233))) * 43758.5453); }\nfloat hash(float x, float y) { return hash(vec2(x, y)); }\n\nfloat shash(vec2 co)\n{\n\tfloat x = co.x;\n\tfloat y = co.y;\n\t\n\tfloat corners = (hash(x-1., y-1.) + hash(x+1., y-1.) + hash(x-1., y+1.) + hash(x+1., y+1.))/16.;\n\tfloat sides   = (hash(x-1., y) + hash(x+1., y) + hash(x, y-1.) + hash(x, y+1.))/8.;\n\tfloat center  = hash(co) / 4.;\n\t\n\treturn corners + sides + center;\n}\n\nfloat noise(vec2 co)\n{\n\tvec2 pos  = floor(co);\n\tvec2 fpos = co - pos;\n\t\n\tfpos = (3.0 - 2.0*fpos)*fpos*fpos;\n\t\n\tfloat c1 = shash(pos);\n\tfloat c2 = shash(pos + vec2(0.0, 1.0));\n\tfloat c3 = shash(pos + vec2(1.0, 0.0));\n\tfloat c4 = shash(pos + vec2(1.0, 1.0));\n\t\n\tfloat s1 = mix(c1, c3, fpos.x);\n\tfloat s2 = mix(c2, c4, fpos.x);\n\t\n\treturn mix(s1, s2, fpos.y);\n}\n\nfloat pnoise(vec2 co, int oct)\n{\n\tfloat total = 0.0;\n\tfloat m = 0.0;\n\t\n\tfor(int i=0; i<oct; i++)\n\t{\n\t\tfloat freq = pow(2.0, float(i));\n\t\tfloat amp  = pow(0.5, float(i));\n\t\t\n\t\ttotal += noise(freq * co) * amp;\n\t\tm += amp;\n\t}\n\t\n\treturn total/m;\n}\n\n\n// FBM: repeatedly apply Perlin noise to position\nvec2 fbm(vec2 p, int oct)\n{\n\treturn vec2(pnoise(p + vec2(iTime, 0.0), oct), pnoise(p + vec2(-iTime, 0.0), oct));\n}\n\nfloat fbm2(vec2 p, int oct)\n{\n\treturn pnoise(p + 10.*fbm(p, oct) + vec2(0.0, iTime), oct);\n}\n\n// Calculate the lights themselves\nvec3 lights(vec2 co)\n{\n\tfloat d,r,g,b,h;\n\tvec3 rc,gc,bc,hc;\n\t\n\t// Red (top)\n\tr = fbm2(co * vec2(1.0, 0.5), 1);\n\td = pnoise(2.*co+vec2(0.3*iTime), 1);\n\trc = vec3(1, 0.0, 0.0) * r * smoothstep(0.0, 2.5+d*r, co.y) * smoothstep(-5., 1., 5.-co.y-2.*d);\n\t//rc = vec3(1., 0.1, 0.0) * clamp(1.0-r-16.0*r*pow(co.y-r-0.7,2.0), 0.0, 1.0);\n\t\n\t// Green (middle)\n\tg = fbm2(co * vec2(2., 0.5), 4);\n\tgc = 0.8*vec3(0.5,1.0,0.0) * clamp(2.*pow((3.-2.*g)*g*g,2.5)-0.5*co.y, 0.0, 1.0) * smoothstep(-2.*d, 0.0, co.y) * smoothstep(0.0, 0.3, 1.1+d-co.y);\n    \n\tg = fbm2(co * vec2(1.0, 0.2), 2);\n\tgc += 0.5*vec3(0.5,1.0,0.0) * clamp(2.*pow((3.-2.*g)*g*g,2.5)-0.5*co.y, 0.0, 1.0) * smoothstep(-2.*d, 0.0, co.y) * smoothstep(0.0, 0.3, 1.1+d-co.y);\n    \n\t\n\t// Blue (bottom)\n\th = pnoise(vec2(5.0*co.x, 5.0*iTime), 1);\n\thc = vec3(0.0, 0.8, 1.0) * pow(h+0.1,2.0) * smoothstep(-2.*d, 0.0, co.y+0.2) * smoothstep(-h, 0.0, -co.y-0.4);\n\t\n\treturn rc+gc+hc;\n}\n\n// Some water, turned off in main because it looks pretty bad\nvec3 water(vec2 co)\n{\n\tfloat n = fbm2(co*100.0, 2);\n\tvec3 col = vec3(0.3,0.3,0.4)*n*n * smoothstep(0.6, 0.8, 1.0-co.y);\n\t\n\treturn col;\n}\n\n// Simple Perlin mountains (yes, they change over time :D)\nvec3 landscape(vec2 co)\n{\n\tfloat n = pnoise(vec2(20.0*co.x, 0.1*iTime), 2);\n\t\n\tif (co.y < n*0.2+0.1)\n\t\treturn vec3(0.0);\n\t\n    vec3 col = vec3(0.5*pow(co.y-1.,2.));\n    \n    vec2 sco = co*500.0;\n\tif (hash(floor(sco)) < 0.005)\n    {\n        float s1 = hash(floor(sco)*floor(sco));\n        float s2 = max(1.-2.*distance(vec2(0.5),fract(sco)), 0.0);\n\t\treturn col + vec3(s1*s2);\n    }\n\n\treturn col;\n}\n\n// The main image!\nvoid mainImage( out vec4 fragColor, in vec2 fragCoord )\n{\n\tvec2 uv = fragCoord.xy / iResolution.xy;\n\tvec2 co = fragCoord.xy/float(iResolution.y);\n    \n    vec3 col = vec3(0.0);\n\t\n\t// Landscape\n\tcol += landscape(co);\n\t\n\t// Aurora (with some transformation)\n    float s = 0.1*sin(iTime);\n\t//float f = 0.6+uv.x*(0.4+uv.x*(-1.5-s+uv.x*(1.3+s)));\n    float f = 0.3+0.4*pnoise(vec2(5.*uv.x, 0.3*iTime),1);\n\tvec2 aco = co;\n\taco.y -= f;\n\taco *= 10.*uv.x+5.0;\n\tcol += 0.5*lights(aco)\n           * (smoothstep(0.3, 0.6, pnoise(vec2(10.*uv.x, 0.3*iTime),1))\n           +  0.5*smoothstep(0.5, 0.7, pnoise(vec2(10.*uv.x,iTime),1)));\n\t\n\t// Water\n\t//col += water(co);\n\t\n\tfragColor = vec4(col, 1.0);\n}"
								}

							}
, 							{
								"box" : 								{
									"id" : "obj-1",
									"maxclass" : "newobj",
									"numinlets" : 0,
									"numoutlets" : 1,
									"outlettype" : [ "" ],
									"patching_rect" : [ 15.0, 15.0, 30.0, 22.0 ],
									"style" : "",
									"text" : "in 1"
								}

							}
, 							{
								"box" : 								{
									"code" : "// Noise functions\nhash(co){\n\treturn fract(sin(dot(co, vec(12.9898, 78.233))) * 43758.5453);\n}\n\nhash(x, y) {\n\treturn hash(vec(x, y));\n}\n\nshash(co){\n\tx = co.x;\n\ty = co.y;\n\t\n\tcorners = (hash(x-1., y-1.) + hash(x+1., y-1.) + hash(x-1., y+1.) + hash(x+1., y+1.))/16.;\n\tsides   = (hash(x-1., y) + hash(x+1., y) + hash(x, y-1.) + hash(x, y+1.))/8.;\n\tcenter  = hash(co) / 4.;\n\t\n\treturn corners + sides + center;\n}\n\nnoize(co)\n{\n\tpos  = floor(co);\n\tfpos = co - pos;\n\t\n\tfpos = (3.0 - 2.0*fpos)*fpos*fpos;\n\t\n\tc1 = shash(pos);\n\tc2 = shash(pos + vec(0.0, 1.0));\n\tc3 = shash(pos + vec(1.0, 0.0));\n\tc4 = shash(pos + vec(1.0, 1.0));\n\t\n\ts1 = mix(c1, c3, fpos.x);\n\ts2 = mix(c2, c4, fpos.x);\n\t\n\treturn mix(s1, s2, fpos.y);\n}\n\npnoise(co, oct)\n{\n\ttotal = 0.0;\n\tm = 0.0;\n\t\n\tfor(i=0; i<oct; i += 1)\n\t{\n\t\tfreq = pow(2.0, (i));\n\t\tamp  = pow(0.5, (i));\n\t\t\n\t\ttotal += noize(freq * co) * amp;\n\t\tm += amp;\n\t}\n\t\n\treturn total/m;\n}\n\n// FBM: repeatedly apply Perlin noise to position\nfbm(p, oct, time)\n{\n\treturn vec(pnoise(p + vec(time, 0.0), oct), pnoise(p + vec(-time, 0.0), oct));\n}\n\nfbm2(p, oct, time)\n{\n\treturn pnoise(p + 10.*fbm(p, oct, time) + vec(0.0, time), oct);\n}\n\n// Calculate the lights themselves\nlights(co, time, col1, col2, col3, btm1, btm2, btm3, top1, top2, top3)\n{\n\t\n\t// Red (top)\n\tr = fbm2(co * vec(1.0, 0.5), 1, time);\n\td = pnoise(2.*co+vec(0.3*time), 1);\n\trc = col1 * r * smoothstep(0.0, 2.5+d*r, co.y+btm1) * smoothstep(-5., 1., top1-co.y-2.*d);\n\t//rc = vec3(1., 0.1, 0.0) * clamp(1.0-r-16.0*r*pow(co.y-r-0.7,2.0), 0.0, 1.0);\n\t\n\t// Green (middle)\n\tg = fbm2(co * vec(2., 0.5), 4, time);\n\tgc = 0.8*col2 * clamp(2.*pow((3.-2.*g)*g*g,2.5)-0.5*co.y, 0.0, 1.0) * smoothstep(-2.*d, 0.0, co.y+btm2) * smoothstep(0.0, 0.3, top2+d-co.y);\n    \n\tg = fbm2(co * vec(1.0, 0.2), 2, time);\n\tgc += 0.5*col2 * clamp(2.*pow((3.-2.*g)*g*g,2.5)-0.5*co.y, 0.0, 1.0) * smoothstep(-2.*d, 0.0, co.y+btm2) * smoothstep(0.0, 0.3, top2+d-co.y);\n    \n\t\n\t// Blue (bottom)\n\th = pnoise(vec(5.0*co.x, 5.0*time), 1);\n\thc = col3 * pow(h+0.1,1.0) * smoothstep(-2.*d, 0.0, co.y+btm3) * smoothstep(-h, 0.0, -co.y+top3);\n\t\n\treturn rc+gc+hc;\n}\n/*\n// Some water, turned off in main because it looks pretty bad\nwater(co, time)\n{\n\tn = fbm2(co*100.0, 2, time);\n\tcol = vec(0.3,0.3,0.4)*n*n * smoothstep(0.6, 0.8, 1.0-co.y);\n\t\n\treturn col;\n}\n*/\n// Simple Perlin mountains (yes, they change over time :D)\nlandscape(co, time, mtncol,skylow, skyhi, skylowamp, skyhiamp, stardensity, mtnheight, mtnamp, mtnspd)\n{\n\tn = pnoise(vec(20.0*co.x, mtnspd*time), 2);\n\tcc = vec(0,0,0);\r\n\tgradlow = pow(1.-co.y,skylowamp);\r\n\tgradhi = pow(co.y,skyhiamp);\r\n\tif (co.y < n*mtnamp+mtnheight){\n\t\tcc = vec(mtncol.r, mtncol.g, mtncol.b);\r\n\t\t}\r\n\telse{\r\n\t\tcc = skylow*vec(gradlow, gradlow, gradlow)+skyhi*vec(gradhi, gradhi, gradhi);\r\n\t\t}\r\n\tcol = vec(cc.r, cc.g, cc.b);\n\tsco = vec(co.x*500.0, co.y*500.0);\ns1 = 0;\r\ns2 = 0;\r\n\tif (hash(floor(sco)) < stardensity)\n\t{\n\t\ts1 = hash(floor(sco)*floor(sco));\n\t\ts2 = max(1.-2.*length(vec(0.5, 0.5)-fract(sco)), 0.0);\n\t\treturn s1, s2;\n\t}\r\nreturn col + (co.y > n*mtnamp+mtnheight)*vec(s1*s2, s1*s2, s1*s2);\r\n}\n\nParam time (0.);\r\nParam mtncol(0.1,0.,0.2);\r\nParam col1(1.,0.,0.);\r\nParam col2(0.,1.,0.);\r\nParam col3(0.,0.,1.);\r\nParam skylow(0.3,0.,0.4);\r\nParam skyhi(0.3,0.9,0.6);\r\nParam stardensity(0.005);\r\nParam mtnamp(0.2);\r\nParam mtnheight(0.1);\r\nParam mtnspd(0.1);\r\nParam btm1(0.);\r\nParam btm2(0.);\r\nParam btm3(0.2);\r\nParam top1(0.);\r\nParam top2(1.1);\r\nParam top3(-0.4);\r\nParam skylowamp(2.);\r\nParam skyhiamp(2.);\n// The main image!\n\n\tuv = norm;\n\tco = 1-(cell/dim.y); // does this need to have the division in the individual vector components?\n    \n    col = vec(0.0, 0.0, 0.0);\n\t\n\t// Landscape\n\tcol += landscape(co, time, mtncol,skylow, skyhi, skylowamp, skyhiamp, stardensity, mtnheight, mtnamp, mtnspd);\n\t\n\t// Aurora (with some transformation)\n    s = 0.1*sin(time);\n\t//float f = 0.6+uv.x*(0.4+uv.x*(-1.5-s+uv.x*(1.3+s)));\n    f = 0.3+0.4*pnoise(vec(5.*uv.x, 0.3*time),1);\n\taco = co;\n\tacoy = aco.y;\n\tacoy -= f;\n\taco = vec(aco.x, acoy);\n\taco *= 10.*uv.x+5.0;\n\tcol += 0.5*lights(aco, time,col1,col2,col3, btm1, btm2, btm3, top1, top2, top3)\n           * (smoothstep(0.3, 0.6, pnoise(vec(10.*uv.x, 0.3*time),1))\n           +  0.5*smoothstep(0.5, 0.7, pnoise(vec(10.*uv.x,time),1)));\n\t//\n\t//\n\t// Water\n//\tcol += water(co, time);\n\tout1 = vec(col.r, col.g, col.b, 1.0);",
									"fontface" : 0,
									"fontname" : "Arial",
									"fontsize" : 12.0,
									"id" : "obj-3",
									"maxclass" : "codebox",
									"numinlets" : 1,
									"numoutlets" : 1,
									"outlettype" : [ "" ],
									"patching_rect" : [ 15.0, 45.0, 645.0, 495.0 ],
									"style" : ""
								}

							}
, 							{
								"box" : 								{
									"id" : "obj-4",
									"maxclass" : "newobj",
									"numinlets" : 1,
									"numoutlets" : 0,
									"patching_rect" : [ 15.0, 555.0, 37.0, 22.0 ],
									"style" : "",
									"text" : "out 1"
								}

							}
 ],
						"lines" : [ 							{
								"patchline" : 								{
									"destination" : [ "obj-3", 0 ],
									"source" : [ "obj-1", 0 ]
								}

							}
, 							{
								"patchline" : 								{
									"destination" : [ "obj-4", 0 ],
									"source" : [ "obj-3", 0 ]
								}

							}
 ]
					}
,
					"patching_rect" : [ 15.0, 195.0, 51.0, 22.0 ],
					"style" : "",
					"text" : "jit.gl.pix"
				}

			}
, 			{
				"box" : 				{
					"attr" : "col1",
					"id" : "obj-22",
					"maxclass" : "attrui",
					"numinlets" : 1,
					"numoutlets" : 1,
					"outlettype" : [ "" ],
					"patching_rect" : [ 630.0, 15.0, 240.0, 22.0 ],
					"style" : ""
				}

			}
, 			{
				"box" : 				{
					"attr" : "mtncol",
					"id" : "obj-23",
					"maxclass" : "attrui",
					"numinlets" : 1,
					"numoutlets" : 1,
					"outlettype" : [ "" ],
					"patching_rect" : [ 375.0, 15.0, 240.0, 22.0 ],
					"style" : ""
				}

			}
, 			{
				"box" : 				{
					"attr" : "stardensity",
					"id" : "obj-24",
					"maxclass" : "attrui",
					"numinlets" : 1,
					"numoutlets" : 1,
					"outlettype" : [ "" ],
					"patching_rect" : [ 375.0, 150.0, 150.0, 22.0 ],
					"style" : ""
				}

			}
 ],
		"lines" : [ 			{
				"patchline" : 				{
					"destination" : [ "obj-2", 0 ],
					"source" : [ "obj-1", 0 ]
				}

			}
, 			{
				"patchline" : 				{
					"destination" : [ "obj-1", 0 ],
					"midpoints" : [ 639.5, 159.0, 537.0, 159.0, 537.0, 189.0, 24.5, 189.0 ],
					"source" : [ "obj-11", 0 ]
				}

			}
, 			{
				"patchline" : 				{
					"destination" : [ "obj-1", 0 ],
					"midpoints" : [ 384.5, 69.0, 339.0, 69.0, 339.0, 189.0, 24.5, 189.0 ],
					"source" : [ "obj-15", 0 ]
				}

			}
, 			{
				"patchline" : 				{
					"destination" : [ "obj-1", 0 ],
					"midpoints" : [ 384.5, 99.0, 339.0, 99.0, 339.0, 189.0, 24.5, 189.0 ],
					"source" : [ "obj-16", 0 ]
				}

			}
, 			{
				"patchline" : 				{
					"destination" : [ "obj-1", 0 ],
					"midpoints" : [ 384.5, 129.0, 339.0, 129.0, 339.0, 189.0, 24.5, 189.0 ],
					"source" : [ "obj-17", 0 ]
				}

			}
, 			{
				"patchline" : 				{
					"destination" : [ "obj-1", 0 ],
					"midpoints" : [ 639.5, 309.0, 387.0, 309.0, 387.0, 189.0, 24.5, 189.0 ],
					"source" : [ "obj-18", 0 ]
				}

			}
, 			{
				"patchline" : 				{
					"destination" : [ "obj-1", 0 ],
					"midpoints" : [ 639.5, 339.0, 387.0, 339.0, 387.0, 189.0, 24.5, 189.0 ],
					"source" : [ "obj-19", 0 ]
				}

			}
, 			{
				"patchline" : 				{
					"destination" : [ "obj-20", 0 ],
					"order" : 1,
					"source" : [ "obj-2", 1 ]
				}

			}
, 			{
				"patchline" : 				{
					"destination" : [ "obj-25", 0 ],
					"midpoints" : [ 112.0, 302.0, 335.25, 302.0, 335.25, 139.0, 114.5, 139.0 ],
					"order" : 0,
					"source" : [ "obj-2", 1 ]
				}

			}
, 			{
				"patchline" : 				{
					"destination" : [ "obj-3", 0 ],
					"midpoints" : [ 112.0, 294.0, 0.0, 294.0, 0.0, 114.0, 24.5, 114.0 ],
					"order" : 2,
					"source" : [ "obj-2", 1 ]
				}

			}
, 			{
				"patchline" : 				{
					"destination" : [ "obj-1", 0 ],
					"midpoints" : [ 639.5, 279.0, 387.0, 279.0, 387.0, 189.0, 24.5, 189.0 ],
					"source" : [ "obj-21", 0 ]
				}

			}
, 			{
				"patchline" : 				{
					"destination" : [ "obj-1", 0 ],
					"midpoints" : [ 639.5, 39.0, 627.0, 39.0, 627.0, 138.0, 537.0, 138.0, 537.0, 189.0, 24.5, 189.0 ],
					"source" : [ "obj-22", 0 ]
				}

			}
, 			{
				"patchline" : 				{
					"destination" : [ "obj-1", 0 ],
					"midpoints" : [ 384.5, 39.0, 339.0, 39.0, 339.0, 189.0, 24.5, 189.0 ],
					"source" : [ "obj-23", 0 ]
				}

			}
, 			{
				"patchline" : 				{
					"destination" : [ "obj-1", 0 ],
					"midpoints" : [ 384.5, 189.0, 24.5, 189.0 ],
					"source" : [ "obj-24", 0 ]
				}

			}
, 			{
				"patchline" : 				{
					"destination" : [ "obj-1", 0 ],
					"midpoints" : [ 114.5, 183.0, 24.5, 183.0 ],
					"source" : [ "obj-25", 0 ]
				}

			}
, 			{
				"patchline" : 				{
					"destination" : [ "obj-1", 0 ],
					"midpoints" : [ 639.5, 399.0, 387.0, 399.0, 387.0, 189.0, 24.5, 189.0 ],
					"source" : [ "obj-26", 0 ]
				}

			}
, 			{
				"patchline" : 				{
					"destination" : [ "obj-1", 0 ],
					"midpoints" : [ 639.5, 429.0, 387.0, 429.0, 387.0, 189.0, 24.5, 189.0 ],
					"source" : [ "obj-27", 0 ]
				}

			}
, 			{
				"patchline" : 				{
					"destination" : [ "obj-1", 0 ],
					"midpoints" : [ 639.5, 120.0, 615.0, 120.0, 615.0, 189.0, 24.5, 189.0 ],
					"source" : [ "obj-28", 0 ]
				}

			}
, 			{
				"patchline" : 				{
					"destination" : [ "obj-1", 0 ],
					"midpoints" : [ 639.5, 369.0, 387.0, 369.0, 387.0, 189.0, 24.5, 189.0 ],
					"source" : [ "obj-29", 0 ]
				}

			}
, 			{
				"patchline" : 				{
					"destination" : [ "obj-8", 0 ],
					"source" : [ "obj-3", 0 ]
				}

			}
, 			{
				"patchline" : 				{
					"destination" : [ "obj-1", 0 ],
					"midpoints" : [ 639.5, 69.0, 627.0, 69.0, 627.0, 138.0, 537.0, 138.0, 537.0, 189.0, 24.5, 189.0 ],
					"source" : [ "obj-31", 0 ]
				}

			}
, 			{
				"patchline" : 				{
					"destination" : [ "obj-2", 0 ],
					"source" : [ "obj-4", 0 ]
				}

			}
, 			{
				"patchline" : 				{
					"destination" : [ "obj-1", 0 ],
					"midpoints" : [ 639.5, 219.0, 388.0, 219.0, 388.0, 189.0, 24.5, 189.0 ],
					"source" : [ "obj-5", 0 ]
				}

			}
, 			{
				"patchline" : 				{
					"destination" : [ "obj-1", 0 ],
					"midpoints" : [ 639.5, 249.0, 389.0, 249.0, 389.0, 189.0, 24.5, 189.0 ],
					"source" : [ "obj-7", 0 ]
				}

			}
, 			{
				"patchline" : 				{
					"destination" : [ "obj-1", 0 ],
					"source" : [ "obj-8", 0 ]
				}

			}
, 			{
				"patchline" : 				{
					"destination" : [ "obj-1", 0 ],
					"midpoints" : [ 639.5, 189.0, 24.5, 189.0 ],
					"source" : [ "obj-9", 0 ]
				}

			}
 ],
		"dependency_cache" : [ 			{
				"name" : "jit.mo.time.mxo",
				"type" : "iLaX"
			}
 ],
		"autosave" : 0,
		"bgfillcolor_type" : "gradient",
		"bgfillcolor_color1" : [ 0.376471, 0.384314, 0.4, 1.0 ],
		"bgfillcolor_color2" : [ 0.290196, 0.309804, 0.301961, 1.0 ],
		"bgfillcolor_color" : [ 0.290196, 0.309804, 0.301961, 1.0 ],
		"bgfillcolor_angle" : 270.0,
		"bgfillcolor_proportion" : 0.39
	}

}
