{
	"patcher" : 	{
		"fileversion" : 1,
		"appversion" : 		{
			"major" : 7,
			"minor" : 3,
			"revision" : 5,
			"architecture" : "x64",
			"modernui" : 1
		}
,
		"rect" : [ 383.0, 252.0, 966.0, 424.0 ],
		"bglocked" : 0,
		"openinpresentation" : 0,
		"default_fontsize" : 12.0,
		"default_fontface" : 0,
		"default_fontname" : "Arial",
		"gridonopen" : 2,
		"gridsize" : [ 15.0, 15.0 ],
		"gridsnaponopen" : 2,
		"objectsnaponopen" : 0,
		"statusbarvisible" : 2,
		"toolbarvisible" : 1,
		"lefttoolbarpinned" : 0,
		"toptoolbarpinned" : 0,
		"righttoolbarpinned" : 0,
		"bottomtoolbarpinned" : 0,
		"toolbars_unpinned_last_save" : 0,
		"tallnewobj" : 0,
		"boxanimatetime" : 200,
		"enablehscroll" : 1,
		"enablevscroll" : 1,
		"devicewidth" : 0.0,
		"description" : "",
		"digest" : "",
		"tags" : "",
		"style" : "",
		"subpatcher_template" : "evan",
		"boxes" : [ 			{
				"box" : 				{
					"attr" : "speedc",
					"id" : "obj-55",
					"maxclass" : "attrui",
					"numinlets" : 1,
					"numoutlets" : 1,
					"outlettype" : [ "" ],
					"patching_rect" : [ 750.0, 90.0, 150.0, 22.0 ],
					"style" : ""
				}

			}
, 			{
				"box" : 				{
					"attr" : "speedb",
					"id" : "obj-53",
					"maxclass" : "attrui",
					"numinlets" : 1,
					"numoutlets" : 1,
					"outlettype" : [ "" ],
					"patching_rect" : [ 750.0, 60.0, 150.0, 22.0 ],
					"style" : ""
				}

			}
, 			{
				"box" : 				{
					"attr" : "speeda",
					"id" : "obj-54",
					"maxclass" : "attrui",
					"numinlets" : 1,
					"numoutlets" : 1,
					"outlettype" : [ "" ],
					"patching_rect" : [ 750.0, 30.0, 150.0, 22.0 ],
					"style" : ""
				}

			}
, 			{
				"box" : 				{
					"attr" : "rot",
					"id" : "obj-46",
					"maxclass" : "attrui",
					"numinlets" : 1,
					"numoutlets" : 1,
					"outlettype" : [ "" ],
					"patching_rect" : [ 585.0, 150.0, 285.0, 22.0 ],
					"style" : ""
				}

			}
, 			{
				"box" : 				{
					"attr" : "ParticleLength",
					"id" : "obj-45",
					"maxclass" : "attrui",
					"numinlets" : 1,
					"numoutlets" : 1,
					"outlettype" : [ "" ],
					"patching_rect" : [ 750.0, 120.0, 150.0, 22.0 ],
					"style" : ""
				}

			}
, 			{
				"box" : 				{
					"attr" : "PASS_COUNT",
					"id" : "obj-44",
					"maxclass" : "attrui",
					"numinlets" : 1,
					"numoutlets" : 1,
					"outlettype" : [ "" ],
					"patching_rect" : [ 420.0, 150.0, 150.0, 22.0 ],
					"style" : ""
				}

			}
, 			{
				"box" : 				{
					"attr" : "fBrightness",
					"id" : "obj-43",
					"maxclass" : "attrui",
					"numinlets" : 1,
					"numoutlets" : 1,
					"outlettype" : [ "" ],
					"patching_rect" : [ 585.0, 120.0, 150.0, 22.0 ],
					"style" : ""
				}

			}
, 			{
				"box" : 				{
					"attr" : "fDepthFade",
					"id" : "obj-42",
					"maxclass" : "attrui",
					"numinlets" : 1,
					"numoutlets" : 1,
					"outlettype" : [ "" ],
					"patching_rect" : [ 585.0, 90.0, 150.0, 22.0 ],
					"style" : ""
				}

			}
, 			{
				"box" : 				{
					"attr" : "fMaxDist",
					"id" : "obj-41",
					"maxclass" : "attrui",
					"numinlets" : 1,
					"numoutlets" : 1,
					"outlettype" : [ "" ],
					"patching_rect" : [ 585.0, 60.0, 150.0, 22.0 ],
					"style" : ""
				}

			}
, 			{
				"box" : 				{
					"attr" : "fMinDist",
					"id" : "obj-40",
					"maxclass" : "attrui",
					"numinlets" : 1,
					"numoutlets" : 1,
					"outlettype" : [ "" ],
					"patching_rect" : [ 585.0, 30.0, 150.0, 22.0 ],
					"style" : ""
				}

			}
, 			{
				"box" : 				{
					"attr" : "fParticleSize",
					"id" : "obj-39",
					"maxclass" : "attrui",
					"numinlets" : 1,
					"numoutlets" : 1,
					"outlettype" : [ "" ],
					"patching_rect" : [ 420.0, 30.0, 150.0, 22.0 ],
					"style" : ""
				}

			}
, 			{
				"box" : 				{
					"attr" : "fRepeatMax",
					"id" : "obj-38",
					"maxclass" : "attrui",
					"numinlets" : 1,
					"numoutlets" : 1,
					"outlettype" : [ "" ],
					"patching_rect" : [ 420.0, 60.0, 150.0, 22.0 ],
					"style" : ""
				}

			}
, 			{
				"box" : 				{
					"attr" : "fRepeatMin",
					"id" : "obj-37",
					"maxclass" : "attrui",
					"numinlets" : 1,
					"numoutlets" : 1,
					"outlettype" : [ "" ],
					"patching_rect" : [ 420.0, 90.0, 150.0, 22.0 ],
					"style" : ""
				}

			}
, 			{
				"box" : 				{
					"attr" : "fSteps",
					"id" : "obj-36",
					"maxclass" : "attrui",
					"numinlets" : 1,
					"numoutlets" : 1,
					"outlettype" : [ "" ],
					"patching_rect" : [ 420.0, 120.0, 150.0, 22.0 ],
					"style" : ""
				}

			}
, 			{
				"box" : 				{
					"id" : "obj-3",
					"maxclass" : "newobj",
					"numinlets" : 1,
					"numoutlets" : 2,
					"outlettype" : [ "", "" ],
					"patching_rect" : [ 15.0, 120.0, 65.0, 22.0 ],
					"style" : "",
					"text" : "jit.mo.time"
				}

			}
, 			{
				"box" : 				{
					"id" : "obj-25",
					"maxclass" : "newobj",
					"numinlets" : 1,
					"numoutlets" : 2,
					"outlettype" : [ "jit_gl_texture", "" ],
					"patching_rect" : [ 105.0, 150.0, 222.0, 22.0 ],
					"style" : "",
					"text" : "jit.gl.texture @adapt 0 @dim 1920 1080"
				}

			}
, 			{
				"box" : 				{
					"fontface" : 0,
					"fontname" : "Arial",
					"fontsize" : 12.0,
					"id" : "obj-20",
					"maxclass" : "jit.fpsgui",
					"numinlets" : 1,
					"numoutlets" : 2,
					"outlettype" : [ "", "" ],
					"patching_rect" : [ 15.0, 315.0, 80.0, 35.0 ],
					"style" : ""
				}

			}
, 			{
				"box" : 				{
					"id" : "obj-6",
					"maxclass" : "comment",
					"numinlets" : 1,
					"numoutlets" : 0,
					"patching_rect" : [ 15.0, 360.0, 255.0, 20.0 ],
					"style" : "",
					"text" : "https://www.shadertoy.com/view/MdlXWr"
				}

			}
, 			{
				"box" : 				{
					"id" : "obj-8",
					"maxclass" : "newobj",
					"numinlets" : 1,
					"numoutlets" : 1,
					"outlettype" : [ "" ],
					"patching_rect" : [ 15.0, 150.0, 81.0, 22.0 ],
					"style" : "",
					"text" : "prepend time"
				}

			}
, 			{
				"box" : 				{
					"id" : "obj-4",
					"maxclass" : "toggle",
					"numinlets" : 1,
					"numoutlets" : 1,
					"outlettype" : [ "int" ],
					"parameter_enable" : 0,
					"patching_rect" : [ 105.0, 225.0, 24.0, 24.0 ],
					"style" : ""
				}

			}
, 			{
				"box" : 				{
					"id" : "obj-2",
					"maxclass" : "newobj",
					"numinlets" : 1,
					"numoutlets" : 3,
					"outlettype" : [ "", "bang", "" ],
					"patching_rect" : [ 15.0, 270.0, 194.0, 22.0 ],
					"style" : "",
					"text" : "jit.world test @high_res 1 @fsaa 1"
				}

			}
, 			{
				"box" : 				{
					"id" : "obj-1",
					"maxclass" : "newobj",
					"numinlets" : 1,
					"numoutlets" : 2,
					"outlettype" : [ "jit_gl_texture", "" ],
					"patcher" : 					{
						"fileversion" : 1,
						"appversion" : 						{
							"major" : 7,
							"minor" : 3,
							"revision" : 5,
							"architecture" : "x64",
							"modernui" : 1
						}
,
						"rect" : [ 360.0, -871.0, 1313.0, 878.0 ],
						"editing_bgcolor" : [ 0.9, 0.9, 0.9, 1.0 ],
						"bglocked" : 0,
						"openinpresentation" : 0,
						"default_fontsize" : 12.0,
						"default_fontface" : 0,
						"default_fontname" : "Arial",
						"gridonopen" : 2,
						"gridsize" : [ 15.0, 15.0 ],
						"gridsnaponopen" : 2,
						"objectsnaponopen" : 0,
						"statusbarvisible" : 2,
						"toolbarvisible" : 1,
						"lefttoolbarpinned" : 0,
						"toptoolbarpinned" : 0,
						"righttoolbarpinned" : 0,
						"bottomtoolbarpinned" : 0,
						"toolbars_unpinned_last_save" : 0,
						"tallnewobj" : 0,
						"boxanimatetime" : 200,
						"enablehscroll" : 1,
						"enablevscroll" : 1,
						"devicewidth" : 0.0,
						"description" : "",
						"digest" : "",
						"tags" : "",
						"style" : "",
						"subpatcher_template" : "",
						"boxes" : [ 							{
								"box" : 								{
									"id" : "obj-13",
									"linecount" : 2,
									"maxclass" : "comment",
									"numinlets" : 1,
									"numoutlets" : 0,
									"patching_rect" : [ 210.0, 555.0, 150.0, 33.0 ],
									"style" : "",
									"text" : "atan in GLSL = atan2 in GenExpr???"
								}

							}
, 							{
								"box" : 								{
									"id" : "obj-11",
									"linecount" : 3,
									"maxclass" : "comment",
									"numinlets" : 1,
									"numoutlets" : 0,
									"patching_rect" : [ 810.0, 15.0, 240.0, 47.0 ],
									"style" : "",
									"text" : "Star Tunnel\nby P_Malin\nhttps://www.shadertoy.com/view/MdlXWr"
								}

							}
, 							{
								"box" : 								{
									"id" : "obj-7",
									"linecount" : 167,
									"maxclass" : "comment",
									"numinlets" : 1,
									"numoutlets" : 0,
									"patching_rect" : [ 810.0, 75.0, 505.0, 2245.0 ],
									"style" : "",
									"text" : "// Star Tunnel - @P_Malin\n// https://www.shadertoy.com/view/MdlXWr\n// License Creative Commons Attribution-NonCommercial-ShareAlike 3.0 Unported License.\n//\n// Single pass starfield inspired by old school tunnel effects.\n// Each angular segment of space around the viewer selects a random star position radius and depth repeat rate.\n\n// Increase pass count for a denser effect\n#define PASS_COUNT 1\n\nfloat fBrightness = 2.5;\n\n// Number of angular segments\nfloat fSteps = 121.0;\n\nfloat fParticleSize = 0.015;\nfloat fParticleLength = 0.5 / 60.0;\n\n// Min and Max star position radius. Min must be present to prevent stars too near camera\nfloat fMinDist = 0.8;\nfloat fMaxDist = 5.0;\n\nfloat fRepeatMin = 1.0;\nfloat fRepeatMax = 2.0;\n\n// fog density\nfloat fDepthFade = 0.8;\n\nfloat Random(float x)\n{\n\treturn fract(sin(x * 123.456) * 23.4567 + sin(x * 345.678) * 45.6789 + sin(x * 456.789) * 56.789);\n}\n\nvec3 GetParticleColour( const in vec3 vParticlePos, const in float fParticleSize, const in vec3 vRayDir )\n{\t\t\n\tvec2 vNormDir = normalize(vRayDir.xy);\n\tfloat d1 = dot(vParticlePos.xy, vNormDir.xy) / length(vRayDir.xy);\n\tvec3 vClosest2d = vRayDir * d1;\n\t\n\tvec3 vClampedPos = vParticlePos;\n\t\n\tvClampedPos.z = clamp(vClosest2d.z, vParticlePos.z - fParticleLength, vParticlePos.z + fParticleLength);\n\t\n\tfloat d = dot(vClampedPos, vRayDir);\n\t\n\tvec3 vClosestPos = vRayDir * d;\n\t\n\tvec3 vDeltaPos = vClampedPos - vClosestPos;\t\n\t\t\n\tfloat fClosestDist = length(vDeltaPos) / fParticleSize;\n\t\n\tfloat fShade = \tclamp(1.0 - fClosestDist, 0.0, 1.0);\n\t\t\n\tfShade = fShade * exp2(-d * fDepthFade) * fBrightness;\n\t\n\treturn vec3(fShade);\n}\n\nvec3 GetParticlePos( const in vec3 vRayDir, const in float fZPos, const in float fSeed )\n{\n\tfloat fAngle = atan(vRayDir.x, vRayDir.y);\n\tfloat fAngleFraction = fract(fAngle / (3.14 * 2.0));\n\t\n\tfloat fSegment = floor(fAngleFraction * fSteps + fSeed) + 0.5 - fSeed;\n\tfloat fParticleAngle = fSegment / fSteps * (3.14 * 2.0);\n\n\tfloat fSegmentPos = fSegment / fSteps;\n\tfloat fRadius = fMinDist + Random(fSegmentPos + fSeed) * (fMaxDist - fMinDist);\n\t\n\tfloat tunnelZ = vRayDir.z / length(vRayDir.xy / fRadius);\n\t\n\ttunnelZ += fZPos;\n\t\n\tfloat fRepeat = fRepeatMin + Random(fSegmentPos + 0.1 + fSeed) * (fRepeatMax - fRepeatMin);\n\t\n\tfloat fParticleZ = (ceil(tunnelZ / fRepeat) - 0.5) * fRepeat - fZPos;\n\t\n\treturn vec3( sin(fParticleAngle) * fRadius, cos(fParticleAngle) * fRadius, fParticleZ );\n}\n\nvec3 Starfield( const in vec3 vRayDir, const in float fZPos, const in float fSeed )\n{\t\n\tvec3 vParticlePos = GetParticlePos(vRayDir, fZPos, fSeed);\n\t\n\treturn GetParticleColour(vParticlePos, fParticleSize, vRayDir);\t\n}\n\nvec3 RotateX( const in vec3 vPos, const in float fAngle )\n{\n    float s = sin(fAngle);\n    float c = cos(fAngle);\n    \n    vec3 vResult = vec3( vPos.x, c * vPos.y + s * vPos.z, -s * vPos.y + c * vPos.z);\n    \n    return vResult;\n}\n\nvec3 RotateY( const in vec3 vPos, const in float fAngle )\n{\n    float s = sin(fAngle);\n    float c = cos(fAngle);\n    \n    vec3 vResult = vec3( c * vPos.x + s * vPos.z, vPos.y, -s * vPos.x + c * vPos.z);\n    \n    return vResult;\n}\n\nvec3 RotateZ( const in vec3 vPos, const in float fAngle )\n{\n    float s = sin(fAngle);\n    float c = cos(fAngle);\n    \n    vec3 vResult = vec3( c * vPos.x + s * vPos.y, -s * vPos.x + c * vPos.y, vPos.z);\n    \n    return vResult;\n}\n\nvoid mainImage( out vec4 fragColor, in vec2 fragCoord )\n{\n\tvec2 vScreenUV = fragCoord.xy / iResolution.xy;\n\t\n\tvec2 vScreenPos = vScreenUV * 2.0 - 1.0;\n\tvScreenPos.x *= iResolution.x / iResolution.y;\n\n\tvec3 vRayDir = normalize(vec3(vScreenPos, 1.0));\n\n\tvec3 vEuler = vec3(0.5 + sin(iTime * 0.2) * 0.125, 0.5 + sin(iTime * 0.1) * 0.125, iTime * 0.1 + sin(iTime * 0.3) * 0.5);\n\t\t\t\n\tif(iMouse.z > 0.0)\n\t{\n\t\tvEuler.x = -((iMouse.y / iResolution.y) * 2.0 - 1.0);\n\t\tvEuler.y = -((iMouse.x / iResolution.x) * 2.0 - 1.0);\n\t\tvEuler.z = 0.0;\n\t}\n\t\t\n\tvRayDir = RotateX(vRayDir, vEuler.x);\n\tvRayDir = RotateY(vRayDir, vEuler.y);\n\tvRayDir = RotateZ(vRayDir, vEuler.z);\n\t\n\tfloat fShade = 0.0;\n\t\t\n\tfloat a = 0.2;\n\tfloat b = 10.0;\n\tfloat c = 1.0;\n\tfloat fZPos = 5.0 + iTime * c + sin(iTime * a) * b;\n\tfloat fSpeed = c + a * b * cos(a * iTime);\n\t\n\tfParticleLength = 0.25 * fSpeed / 60.0;\n\t\n\tfloat fSeed = 0.0;\n\t\n\tvec3 vResult = mix(vec3(0.005, 0.0, 0.01), vec3(0.01, 0.005, 0.0), vRayDir.y * 0.5 + 0.5);\n\t\n\tfor(int i=0; i<PASS_COUNT; i++)\n\t{\n\t\tvResult += Starfield(vRayDir, fZPos, fSeed);\n\t\tfSeed += 1.234;\n\t}\n\t\n\tfragColor = vec4(sqrt(vResult),1.0);\n}"
								}

							}
, 							{
								"box" : 								{
									"id" : "obj-1",
									"maxclass" : "newobj",
									"numinlets" : 0,
									"numoutlets" : 1,
									"outlettype" : [ "" ],
									"patching_rect" : [ 15.0, 15.0, 30.0, 22.0 ],
									"style" : "",
									"text" : "in 1"
								}

							}
, 							{
								"box" : 								{
									"code" : "// Star Tunnel - @P_Malin\n// https://www.shadertoy.com/view/MdlXWr\n// License Creative Commons Attribution-NonCommercial-ShareAlike 3.0 Unported License.\n//\n// Single pass starfield inspired by old school tunnel effects.\n// Each angular segment of space around the viewer selects a random star position radius and depth repeat rate.\n\nRandm(x)\n{\n\treturn fract(sin(x * 123.456) * 23.4567 + sin(x * 345.678) * 45.6789 + sin(x * 456.789) * 56.789);\n}\n\nGetParticleColour(vParticlePos, fParticleSize, vRayDir, fParticleLength, fDepthFade, fBrightness )\n{\t\t\n\tvNormDir = normalize(vRayDir.xy);\n\td1 = dot(vParticlePos.xy, vNormDir.xy) / length(vRayDir.xy);\n\tvClosest2d = vRayDir * d1;\n\t\n\tvClampedPos = vParticlePos;\n\n\tvClampedPosZ = vClampedPos.z;\n\tvClampedPosZ = clamp(vClosest2d.z, vParticlePos.z - fParticleLength, vParticlePos.z + fParticleLength);\n\tvClampedPos = vec(vClampedPos.x, vClampedPos.y, vClampedPosZ);\n\td = dot(vClampedPos, vRayDir);\n\t\n\tvClosestPos = vRayDir * d;\n\n\tvDeltaPos = vClampedPos - vClosestPos;\t\n\t\t\n\tfClosestDist = length(vDeltaPos) / fParticleSize;\n\t\n\tfShade = \tclamp(1.0 - fClosestDist, 0.0, 1.0);\n\t\t\n\tfShade = fShade * exp2(-d * fDepthFade) * fBrightness;\n\t\n\treturn vec(fShade);\n}\n\nGetParticlePos(vRayDir, fZPos, fSeed, fSteps, fMinDist, fMaxDist, fRepeatMin, fRepeatMax )\n{\n\tfAngle = atan2(vRayDir.x, vRayDir.y);\n\tfAngleFraction = fract(fAngle / (3.14 * 2.0));\n\t\n\tfSegment = floor(fAngleFraction * fSteps + fSeed) + 0.5 - fSeed;\n\tfParticleAngle = fSegment / fSteps * (3.14 * 2.0);\n\n\tfSegmentPos = fSegment / fSteps;\n\tfRadius = fMinDist + Randm(fSegmentPos + fSeed) * (fMaxDist - fMinDist);\n\t\n\ttunnelZ = vRayDir.z / length(vRayDir.xy / fRadius);\n\t\n\ttunnelZ += fZPos;\n\t\n\tfRepeat = fRepeatMin + Randm(fSegmentPos + 0.1 + fSeed) * (fRepeatMax - fRepeatMin);\n\t\n\tfParticleZ = (ceil(tunnelZ / fRepeat) - 0.5) * fRepeat - fZPos;\n\t\n\treturn vec( sin(fParticleAngle) * fRadius, cos(fParticleAngle) * fRadius, fParticleZ );\n}\r\n\nStarfield(vRayDir, fZPos, fSeed, fSteps, fMinDist, fMaxDist, fRepeatMin, fRepeatMax, fParticleSize, fParticleLength, fDepthFade, fBrightness )\n{\t\n\tvParticlePos = GetParticlePos(vRayDir, fZPos, fSeed, fSteps, fMinDist, fMaxDist, fRepeatMin, fRepeatMax );\n\t\n\treturn GetParticleColour(vParticlePos, fParticleSize, vRayDir, fParticleLength, fDepthFade, fBrightness);\t\n}\n\nRotateX(vPos, fAngle )\n{\n    s = sin(fAngle);\n    c = cos(fAngle);\n    \n    vResult = vec( vPos.x, c * vPos.y + s * vPos.z, -s * vPos.y + c * vPos.z);\n    \n    return vResult;\n}\n\nRotateY( vPos, fAngle )\n{\n    s = sin(fAngle);\n    c = cos(fAngle);\n    \n    vResult = vec( c * vPos.x + s * vPos.z, vPos.y, -s * vPos.x + c * vPos.z);\n    \n    return vResult;\n}\n\nRotateZ( vPos, fAngle )\n{\n    s = sin(fAngle);\n    c = cos(fAngle);\n    \n    vResult = vec( c * vPos.x + s * vPos.y, -s * vPos.x + c * vPos.y, vPos.z);\n    \n    return vResult;\n}\n\nParam mouse(0., 0., 0.);\nParam time(0.);\n// Increase pass count for a denser effect\nParam PASS_COUNT (5.);\n\nParam fBrightness (2.5);\n\n// Number of angular segments\nParam fSteps (121.0);\n\nParam fParticleSize (0.015);\nParam ParticleLength (3.5);\n\n// Min and Max star position radius. Min must be present to prevent stars too near camera\nParam fMinDist (0.8);\nParam fMaxDist (5.0);\n\nParam fRepeatMin (1.0);\nParam fRepeatMax (2.0);\n\r\nParam rot (0, 0, 0);\n// fog density\nParam fDepthFade (0.8);\n\r\nParam speeda (0.2);\nParam speedb (12.0);\nParam speedc (1.0);\r\n\nvScreenUV = norm;\n\nvScreenPos = vScreenUV * 2.0 - 1.0;\nvScreenPosx = vScreenPos.x;\nvScreenPosx *= dim.x / dim.y;\nvScreenPos = vec(vScreenPosx, vScreenPos.y);\nvRayDir = normalize(vec(vScreenPos.x, vScreenPos.y, 1.0));\nvEuler = rot;\nif(mouse.z > 0.0){\n\tvEuler = vec(-((mouse.y / dim.y) * 2.0 - 1.0), -((mouse.x / dim.x) * 2.0 - 1.0), 0.0);\n\t}\n\nvRayDir = RotateX(vRayDir, vEuler.x);\nvRayDir = RotateY(vRayDir, vEuler.y);\nvRayDir = RotateZ(vRayDir, vEuler.z);\n\nfShade = 0.0;\n\r\na = speeda;\r\nb = speedb;\r\nc = speedc;\r\n\nfZPos = 5.0 + time * c + (time * a) * b;\nfSpeed = c + a * b * cos(a * time);\n\nfParticleLength = ParticleLength * fSpeed / 60.0;\n\nfSeed = 0.0;\n\nvResult = mix(vec(0.005, 0.0, 0.01), vec(0.01, 0.005, 0.0), vRayDir.y * 0.5 + 0.5);\n\nfor(i=0; i<PASS_COUNT; i+= 1){\n\tvResult += Starfield(vRayDir, fZPos, fSeed, fSteps, fMinDist, fMaxDist, fRepeatMin, fRepeatMax, fParticleSize, fParticleLength, fDepthFade, fBrightness);\n\tfSeed += 1.234;\n\t}\n\nout1 = vec(sqrt(vResult.x), sqrt(vResult.y), sqrt(vResult.z), 1.0);",
									"fontface" : 0,
									"fontname" : "Arial",
									"fontsize" : 12.0,
									"id" : "obj-3",
									"maxclass" : "codebox",
									"numinlets" : 1,
									"numoutlets" : 1,
									"outlettype" : [ "" ],
									"patching_rect" : [ 15.0, 45.0, 780.0, 480.0 ],
									"style" : ""
								}

							}
, 							{
								"box" : 								{
									"id" : "obj-4",
									"maxclass" : "newobj",
									"numinlets" : 1,
									"numoutlets" : 0,
									"patching_rect" : [ 15.0, 555.0, 37.0, 22.0 ],
									"style" : "",
									"text" : "out 1"
								}

							}
 ],
						"lines" : [ 							{
								"patchline" : 								{
									"destination" : [ "obj-3", 0 ],
									"source" : [ "obj-1", 0 ]
								}

							}
, 							{
								"patchline" : 								{
									"destination" : [ "obj-4", 0 ],
									"source" : [ "obj-3", 0 ]
								}

							}
 ]
					}
,
					"patching_rect" : [ 15.0, 195.0, 51.0, 22.0 ],
					"style" : "",
					"text" : "jit.gl.pix"
				}

			}
 ],
		"lines" : [ 			{
				"patchline" : 				{
					"destination" : [ "obj-2", 0 ],
					"source" : [ "obj-1", 0 ]
				}

			}
, 			{
				"patchline" : 				{
					"destination" : [ "obj-20", 0 ],
					"order" : 1,
					"source" : [ "obj-2", 1 ]
				}

			}
, 			{
				"patchline" : 				{
					"destination" : [ "obj-25", 0 ],
					"midpoints" : [ 112.0, 302.0, 335.25, 302.0, 335.25, 139.0, 114.5, 139.0 ],
					"order" : 0,
					"source" : [ "obj-2", 1 ]
				}

			}
, 			{
				"patchline" : 				{
					"destination" : [ "obj-3", 0 ],
					"midpoints" : [ 112.0, 294.0, 0.0, 294.0, 0.0, 114.0, 24.5, 114.0 ],
					"order" : 2,
					"source" : [ "obj-2", 1 ]
				}

			}
, 			{
				"patchline" : 				{
					"destination" : [ "obj-1", 0 ],
					"midpoints" : [ 114.5, 183.0, 24.5, 183.0 ],
					"source" : [ "obj-25", 0 ]
				}

			}
, 			{
				"patchline" : 				{
					"destination" : [ "obj-8", 0 ],
					"source" : [ "obj-3", 0 ]
				}

			}
, 			{
				"patchline" : 				{
					"destination" : [ "obj-1", 0 ],
					"midpoints" : [ 429.5, 183.0, 24.5, 183.0 ],
					"source" : [ "obj-36", 0 ]
				}

			}
, 			{
				"patchline" : 				{
					"destination" : [ "obj-1", 0 ],
					"midpoints" : [ 429.5, 183.0, 24.5, 183.0 ],
					"source" : [ "obj-37", 0 ]
				}

			}
, 			{
				"patchline" : 				{
					"destination" : [ "obj-1", 0 ],
					"midpoints" : [ 429.5, 183.0, 24.5, 183.0 ],
					"source" : [ "obj-38", 0 ]
				}

			}
, 			{
				"patchline" : 				{
					"destination" : [ "obj-1", 0 ],
					"midpoints" : [ 429.5, 183.0, 24.5, 183.0 ],
					"source" : [ "obj-39", 0 ]
				}

			}
, 			{
				"patchline" : 				{
					"destination" : [ "obj-2", 0 ],
					"source" : [ "obj-4", 0 ]
				}

			}
, 			{
				"patchline" : 				{
					"destination" : [ "obj-1", 0 ],
					"midpoints" : [ 594.5, 183.0, 24.5, 183.0 ],
					"source" : [ "obj-40", 0 ]
				}

			}
, 			{
				"patchline" : 				{
					"destination" : [ "obj-1", 0 ],
					"midpoints" : [ 594.5, 183.0, 24.5, 183.0 ],
					"source" : [ "obj-41", 0 ]
				}

			}
, 			{
				"patchline" : 				{
					"destination" : [ "obj-1", 0 ],
					"midpoints" : [ 594.5, 183.0, 24.5, 183.0 ],
					"source" : [ "obj-42", 0 ]
				}

			}
, 			{
				"patchline" : 				{
					"destination" : [ "obj-1", 0 ],
					"midpoints" : [ 594.5, 183.0, 24.5, 183.0 ],
					"source" : [ "obj-43", 0 ]
				}

			}
, 			{
				"patchline" : 				{
					"destination" : [ "obj-1", 0 ],
					"midpoints" : [ 429.5, 183.0, 24.5, 183.0 ],
					"source" : [ "obj-44", 0 ]
				}

			}
, 			{
				"patchline" : 				{
					"destination" : [ "obj-1", 0 ],
					"midpoints" : [ 759.5, 183.0, 24.5, 183.0 ],
					"source" : [ "obj-45", 0 ]
				}

			}
, 			{
				"patchline" : 				{
					"destination" : [ "obj-1", 0 ],
					"midpoints" : [ 594.5, 183.0, 24.5, 183.0 ],
					"source" : [ "obj-46", 0 ]
				}

			}
, 			{
				"patchline" : 				{
					"destination" : [ "obj-1", 0 ],
					"midpoints" : [ 759.5, 183.0, 24.5, 183.0 ],
					"source" : [ "obj-53", 0 ]
				}

			}
, 			{
				"patchline" : 				{
					"destination" : [ "obj-1", 0 ],
					"midpoints" : [ 759.5, 183.0, 24.5, 183.0 ],
					"source" : [ "obj-54", 0 ]
				}

			}
, 			{
				"patchline" : 				{
					"destination" : [ "obj-1", 0 ],
					"midpoints" : [ 759.5, 183.0, 24.5, 183.0 ],
					"source" : [ "obj-55", 0 ]
				}

			}
, 			{
				"patchline" : 				{
					"destination" : [ "obj-1", 0 ],
					"source" : [ "obj-8", 0 ]
				}

			}
 ],
		"dependency_cache" : [ 			{
				"name" : "jit.mo.time.mxo",
				"type" : "iLaX"
			}
 ],
		"autosave" : 0,
		"bgfillcolor_type" : "gradient",
		"bgfillcolor_color1" : [ 0.376471, 0.384314, 0.4, 1.0 ],
		"bgfillcolor_color2" : [ 0.290196, 0.309804, 0.301961, 1.0 ],
		"bgfillcolor_color" : [ 0.290196, 0.309804, 0.301961, 1.0 ],
		"bgfillcolor_angle" : 270.0,
		"bgfillcolor_proportion" : 0.39
	}

}
